<svg version="1.1" xmlns="http://www.w3.org/2000/svg" xmlns:xlink="http://www.w3.org/1999/xlink" width="1136" height="672"><defs><clipPath id="fahIzzqHMJbB"><path fill="none" stroke="none" d=" M 0 0 L 1136 0 L 1136 672 L 0 672 L 0 0 Z"/></clipPath></defs><g transform="scale(1,1)" clip-path="url(#fahIzzqHMJbB)"><g><rect fill="rgb(255,255,255)" stroke="none" x="0" y="0" width="1136" height="673" fill-opacity="1"/><path fill="none" stroke="rgb(192,192,192)" paint-order="fill stroke markers" d=" M 213.5 0.5 L 213.5 672.5 M 391.5 0.5 L 391.5 672.5 M 570.5 0.5 L 570.5 672.5 M 748.5 0.5 L 748.5 672.5 M 926.5 0.5 L 926.5 672.5 M 1104.5 0.5 L 1104.5 672.5" stroke-opacity="1" stroke-linecap="round" stroke-linejoin="round" stroke-miterlimit="10"/><path fill="none" stroke="rgb(192,192,192)" paint-order="fill stroke markers" d=" M 71.5 0.5 L 71.5 672.5 M 106.5 0.5 L 106.5 672.5 M 142.5 0.5 L 142.5 672.5 M 178.5 0.5 L 178.5 672.5 M 249.5 0.5 L 249.5 672.5 M 285.5 0.5 L 285.5 672.5 M 320.5 0.5 L 320.5 672.5 M 356.5 0.5 L 356.5 672.5 M 427.5 0.5 L 427.5 672.5 M 463.5 0.5 L 463.5 672.5 M 498.5 0.5 L 498.5 672.5 M 534.5 0.5 L 534.5 672.5 M 605.5 0.5 L 605.5 672.5 M 641.5 0.5 L 641.5 672.5 M 676.5 0.5 L 676.5 672.5 M 712.5 0.5 L 712.5 672.5 M 783.5 0.5 L 783.5 672.5 M 819.5 0.5 L 819.5 672.5 M 855.5 0.5 L 855.5 672.5 M 890.5 0.5 L 890.5 672.5 M 961.5 0.5 L 961.5 672.5 M 997.5 0.5 L 997.5 672.5 M 1033.5 0.5 L 1033.5 672.5 M 1068.5 0.5 L 1068.5 672.5" stroke-opacity="0.23529411764705882" stroke-linecap="round" stroke-linejoin="round" stroke-miterlimit="10"/><path fill="none" stroke="rgb(192,192,192)" paint-order="fill stroke markers" d=" M 0.5 0.5 L 1136.5 0.5 M 0.5 0.5 L 1136.5 0.5 M 0.5 96.5 L 1136.5 96.5 M 0.5 192.5 L 1136.5 192.5 M 0.5 288.5 L 1136.5 288.5 M 0.5 384.5 L 1136.5 384.5 M 0.5 480.5 L 1136.5 480.5 M 0.5 576.5 L 1136.5 576.5" stroke-opacity="1" stroke-linecap="round" stroke-linejoin="round" stroke-miterlimit="10"/><path fill="none" stroke="rgb(192,192,192)" paint-order="fill stroke markers" d=" M 0.5 0.5 L 1136.5 0.5 M 0.5 19.5 L 1136.5 19.5 M 0.5 38.5 L 1136.5 38.5 M 0.5 57.5 L 1136.5 57.5 M 0.5 76.5 L 1136.5 76.5 M 0.5 115.5 L 1136.5 115.5 M 0.5 134.5 L 1136.5 134.5 M 0.5 153.5 L 1136.5 153.5 M 0.5 172.5 L 1136.5 172.5 M 0.5 211.5 L 1136.5 211.5 M 0.5 230.5 L 1136.5 230.5 M 0.5 249.5 L 1136.5 249.5 M 0.5 268.5 L 1136.5 268.5 M 0.5 307.5 L 1136.5 307.5 M 0.5 326.5 L 1136.5 326.5 M 0.5 345.5 L 1136.5 345.5 M 0.5 364.5 L 1136.5 364.5 M 0.5 403.5 L 1136.5 403.5 M 0.5 422.5 L 1136.5 422.5 M 0.5 441.5 L 1136.5 441.5 M 0.5 460.5 L 1136.5 460.5 M 0.5 499.5 L 1136.5 499.5 M 0.5 518.5 L 1136.5 518.5 M 0.5 537.5 L 1136.5 537.5 M 0.5 556.5 L 1136.5 556.5 M 0.5 595.5 L 1136.5 595.5 M 0.5 614.5 L 1136.5 614.5 M 0.5 633.5 L 1136.5 633.5 M 0.5 652.5 L 1136.5 652.5" stroke-opacity="0.23529411764705882" stroke-linecap="round" stroke-linejoin="round" stroke-miterlimit="10"/><path fill="none" stroke="rgb(37,37,37)" paint-order="fill stroke markers" d=" M 35.5 2.5 L 35.5 672.5" stroke-opacity="1" stroke-miterlimit="10"/><path fill="none" stroke="rgb(37,37,37)" paint-order="fill stroke markers" d=" M 35.5 1.5 L 31.5 5.5" stroke-opacity="1" stroke-miterlimit="10"/><path fill="none" stroke="rgb(37,37,37)" paint-order="fill stroke markers" d=" M 35.5 1.5 L 39.5 5.5" stroke-opacity="1" stroke-miterlimit="10"/><path fill="none" stroke="rgb(37,37,37)" paint-order="fill stroke markers" d=" M 0.5 646.5 L 1134.5 646.5" stroke-opacity="1" stroke-miterlimit="10"/><path fill="none" stroke="rgb(37,37,37)" paint-order="fill stroke markers" d=" M 1135.5 646.5 L 1131.5 642.5" stroke-opacity="1" stroke-miterlimit="10"/><path fill="none" stroke="rgb(37,37,37)" paint-order="fill stroke markers" d=" M 1135.5 646.5 L 1131.5 650.5" stroke-opacity="1" stroke-miterlimit="10"/><path fill="none" stroke="rgb(37,37,37)" paint-order="fill stroke markers" d=" M 35.5 646.5 L 35.5 649.5" stroke-opacity="1" stroke-miterlimit="10"/><path fill="none" stroke="rgb(37,37,37)" paint-order="fill stroke markers" d=" M 124.5 646.5 L 124.5 649.5" stroke-opacity="1" stroke-miterlimit="10"/><path fill="none" stroke="rgb(37,37,37)" paint-order="fill stroke markers" d=" M 213.5 646.5 L 213.5 649.5" stroke-opacity="1" stroke-miterlimit="10"/><path fill="none" stroke="rgb(37,37,37)" paint-order="fill stroke markers" d=" M 302.5 646.5 L 302.5 649.5" stroke-opacity="1" stroke-miterlimit="10"/><path fill="none" stroke="rgb(37,37,37)" paint-order="fill stroke markers" d=" M 391.5 646.5 L 391.5 649.5" stroke-opacity="1" stroke-miterlimit="10"/><path fill="none" stroke="rgb(37,37,37)" paint-order="fill stroke markers" d=" M 480.5 646.5 L 480.5 649.5" stroke-opacity="1" stroke-miterlimit="10"/><path fill="none" stroke="rgb(37,37,37)" paint-order="fill stroke markers" d=" M 570.5 646.5 L 570.5 649.5" stroke-opacity="1" stroke-miterlimit="10"/><path fill="none" stroke="rgb(37,37,37)" paint-order="fill stroke markers" d=" M 659.5 646.5 L 659.5 649.5" stroke-opacity="1" stroke-miterlimit="10"/><path fill="none" stroke="rgb(37,37,37)" paint-order="fill stroke markers" d=" M 748.5 646.5 L 748.5 649.5" stroke-opacity="1" stroke-miterlimit="10"/><path fill="none" stroke="rgb(37,37,37)" paint-order="fill stroke markers" d=" M 837.5 646.5 L 837.5 649.5" stroke-opacity="1" stroke-miterlimit="10"/><path fill="none" stroke="rgb(37,37,37)" paint-order="fill stroke markers" d=" M 926.5 646.5 L 926.5 649.5" stroke-opacity="1" stroke-miterlimit="10"/><path fill="none" stroke="rgb(37,37,37)" paint-order="fill stroke markers" d=" M 1015.5 646.5 L 1015.5 649.5" stroke-opacity="1" stroke-miterlimit="10"/><path fill="none" stroke="rgb(37,37,37)" paint-order="fill stroke markers" d=" M 1104.5 646.5 L 1104.5 649.5" stroke-opacity="1" stroke-miterlimit="10"/><text fill="rgb(37,37,37)" stroke="none" font-family="geogebra-sans-serif, sans-serif" font-size="12px" font-style="normal" font-weight="normal" text-decoration="normal" x="14" y="581" text-anchor="start" dominant-baseline="alphabetic" fill-opacity="1">16</text><text fill="none" stroke="rgb(255,255,255)" font-family="geogebra-sans-serif, sans-serif" font-size="12px" font-style="normal" font-weight="normal" text-decoration="normal" x="14" y="581" text-anchor="start" dominant-baseline="alphabetic" stroke-opacity="1" stroke-linejoin="bevel" stroke-miterlimit="10" stroke-width="3">16</text><text fill="rgb(37,37,37)" stroke="none" font-family="geogebra-sans-serif, sans-serif" font-size="12px" font-style="normal" font-weight="normal" text-decoration="normal" x="14" y="581" text-anchor="start" dominant-baseline="alphabetic" fill-opacity="1">16</text><text fill="rgb(37,37,37)" stroke="none" font-family="geogebra-sans-serif, sans-serif" font-size="12px" font-style="normal" font-weight="normal" text-decoration="normal" x="14" y="485" text-anchor="start" dominant-baseline="alphabetic" fill-opacity="1">17</text><text fill="none" stroke="rgb(255,255,255)" font-family="geogebra-sans-serif, sans-serif" font-size="12px" font-style="normal" font-weight="normal" text-decoration="normal" x="14" y="485" text-anchor="start" dominant-baseline="alphabetic" stroke-opacity="1" stroke-linejoin="bevel" stroke-miterlimit="10" stroke-width="3">17</text><text fill="rgb(37,37,37)" stroke="none" font-family="geogebra-sans-serif, sans-serif" font-size="12px" font-style="normal" font-weight="normal" text-decoration="normal" x="14" y="485" text-anchor="start" dominant-baseline="alphabetic" fill-opacity="1">17</text><text fill="rgb(37,37,37)" stroke="none" font-family="geogebra-sans-serif, sans-serif" font-size="12px" font-style="normal" font-weight="normal" text-decoration="normal" x="14" y="389" text-anchor="start" dominant-baseline="alphabetic" fill-opacity="1">18</text><text fill="none" stroke="rgb(255,255,255)" font-family="geogebra-sans-serif, sans-serif" font-size="12px" font-style="normal" font-weight="normal" text-decoration="normal" x="14" y="389" text-anchor="start" dominant-baseline="alphabetic" stroke-opacity="1" stroke-linejoin="bevel" stroke-miterlimit="10" stroke-width="3">18</text><text fill="rgb(37,37,37)" stroke="none" font-family="geogebra-sans-serif, sans-serif" font-size="12px" font-style="normal" font-weight="normal" text-decoration="normal" x="14" y="389" text-anchor="start" dominant-baseline="alphabetic" fill-opacity="1">18</text><text fill="rgb(37,37,37)" stroke="none" font-family="geogebra-sans-serif, sans-serif" font-size="12px" font-style="normal" font-weight="normal" text-decoration="normal" x="14" y="293" text-anchor="start" dominant-baseline="alphabetic" fill-opacity="1">19</text><text fill="none" stroke="rgb(255,255,255)" font-family="geogebra-sans-serif, sans-serif" font-size="12px" font-style="normal" font-weight="normal" text-decoration="normal" x="14" y="293" text-anchor="start" dominant-baseline="alphabetic" stroke-opacity="1" stroke-linejoin="bevel" stroke-miterlimit="10" stroke-width="3">19</text><text fill="rgb(37,37,37)" stroke="none" font-family="geogebra-sans-serif, sans-serif" font-size="12px" font-style="normal" font-weight="normal" text-decoration="normal" x="14" y="293" text-anchor="start" dominant-baseline="alphabetic" fill-opacity="1">19</text><text fill="rgb(37,37,37)" stroke="none" font-family="geogebra-sans-serif, sans-serif" font-size="12px" font-style="normal" font-weight="normal" text-decoration="normal" x="14" y="197" text-anchor="start" dominant-baseline="alphabetic" fill-opacity="1">20</text><text fill="none" stroke="rgb(255,255,255)" font-family="geogebra-sans-serif, sans-serif" font-size="12px" font-style="normal" font-weight="normal" text-decoration="normal" x="14" y="197" text-anchor="start" dominant-baseline="alphabetic" stroke-opacity="1" stroke-linejoin="bevel" stroke-miterlimit="10" stroke-width="3">20</text><text fill="rgb(37,37,37)" stroke="none" font-family="geogebra-sans-serif, sans-serif" font-size="12px" font-style="normal" font-weight="normal" text-decoration="normal" x="14" y="197" text-anchor="start" dominant-baseline="alphabetic" fill-opacity="1">20</text><text fill="rgb(37,37,37)" stroke="none" font-family="geogebra-sans-serif, sans-serif" font-size="12px" font-style="normal" font-weight="normal" text-decoration="normal" x="14" y="101" text-anchor="start" dominant-baseline="alphabetic" fill-opacity="1">21</text><text fill="none" stroke="rgb(255,255,255)" font-family="geogebra-sans-serif, sans-serif" font-size="12px" font-style="normal" font-weight="normal" text-decoration="normal" x="14" y="101" text-anchor="start" dominant-baseline="alphabetic" stroke-opacity="1" stroke-linejoin="bevel" stroke-miterlimit="10" stroke-width="3">21</text><text fill="rgb(37,37,37)" stroke="none" font-family="geogebra-sans-serif, sans-serif" font-size="12px" font-style="normal" font-weight="normal" text-decoration="normal" x="14" y="101" text-anchor="start" dominant-baseline="alphabetic" fill-opacity="1">21</text><path fill="none" stroke="rgb(0,0,0)" paint-order="fill stroke markers" d=" M 391.87500000000006 288.0000000000168 L 748.1250000000001 288.0000000000168" stroke-opacity="0.6980392156862745" stroke-linecap="round" stroke-linejoin="round" stroke-miterlimit="10" stroke-width="1.5"/><path fill="none" stroke="rgb(0,0,0)" paint-order="fill stroke markers" d=" M 926.2500000000001 96.00000000001842 L 1104.3750000000002 96.00000000001842" stroke-opacity="0.6980392156862745" stroke-linecap="round" stroke-linejoin="round" stroke-miterlimit="10" stroke-width="1.5"/><path fill="none" stroke="rgb(0,0,0)" paint-order="fill stroke markers" d=" M 748.1250000000001 288.0000000000168 L 926.2500000000001 288.0000000000168" stroke-opacity="0.6980392156862745" stroke-linejoin="round" stroke-miterlimit="10" stroke-width="1.5" stroke-dasharray="9.5,8"/><path fill="rgb(0,0,0)" stroke="none" paint-order="stroke fill markers" d=" M 394.87500000000006 288.0000000000168 C 394.87500000000006 289.6568542495092 393.5318542494924 291.0000000000168 391.87500000000006 291.0000000000168 C 390.2181457505077 291.0000000000168 388.87500000000006 289.6568542495092 388.87500000000006 288.0000000000168 C 388.87500000000006 286.34314575052446 390.2181457505077 285.0000000000168 391.87500000000006 285.0000000000168 C 393.5318542494924 285.0000000000168 394.87500000000006 286.34314575052446 394.87500000000006 288.0000000000168 Z" fill-opacity="1"/><path fill="rgb(0,0,0)" stroke="none" paint-order="stroke fill markers" d=" M 751.1250000000001 288.0000000000168 C 751.1250000000001 289.6568542495092 749.7818542494925 291.0000000000168 748.1250000000001 291.0000000000168 C 746.4681457505077 291.0000000000168 745.1250000000001 289.6568542495092 745.1250000000001 288.0000000000168 C 745.1250000000001 286.34314575052446 746.4681457505077 285.0000000000168 748.1250000000001 285.0000000000168 C 749.7818542494925 285.0000000000168 751.1250000000001 286.34314575052446 751.1250000000001 288.0000000000168 Z" fill-opacity="1"/><path fill="rgb(0,0,0)" stroke="none" paint-order="stroke fill markers" d=" M 929.2500000000001 96.00000000001842 C 929.2500000000001 97.6568542495108 927.9068542494925 99.00000000001842 926.2500000000001 99.00000000001842 C 924.5931457505077 99.00000000001842 923.2500000000001 97.6568542495108 923.2500000000001 96.00000000001842 C 923.2500000000001 94.34314575052603 924.5931457505077 93.00000000001842 926.2500000000001 93.00000000001842 C 927.9068542494925 93.00000000001842 929.2500000000001 94.34314575052603 929.2500000000001 96.00000000001842 Z" fill-opacity="1"/><path fill="rgb(0,0,0)" stroke="none" paint-order="stroke fill markers" d=" M 1107.3750000000002 96.00000000001842 C 1107.3750000000002 97.6568542495108 1106.0318542494927 99.00000000001842 1104.3750000000002 99.00000000001842 C 1102.7181457505078 99.00000000001842 1101.3750000000002 97.6568542495108 1101.3750000000002 96.00000000001842 C 1101.3750000000002 94.34314575052603 1102.7181457505078 93.00000000001842 1104.3750000000002 93.00000000001842 C 1106.0318542494927 93.00000000001842 1107.3750000000002 94.34314575052603 1107.3750000000002 96.00000000001842 Z" fill-opacity="1"/><path fill="none" stroke="rgb(0,0,0)" paint-order="fill stroke markers" d=" M 929.2500000000001 288.0000000000168 C 929.2500000000001 289.6568542495092 927.9068542494925 291.0000000000168 926.2500000000001 291.0000000000168 C 924.5931457505077 291.0000000000168 923.2500000000001 289.6568542495092 923.2500000000001 288.0000000000168 C 923.2500000000001 286.34314575052446 924.5931457505077 285.0000000000168 926.2500000000001 285.0000000000168 C 927.9068542494925 285.0000000000168 929.2500000000001 286.34314575052446 929.2500000000001 288.0000000000168 Z" stroke-opacity="1" stroke-linecap="square" stroke-miterlimit="10" stroke-width="1.5"/><g transform="scale(25,25)"><g transform="translate(1.64,25.163999999999998)"><path fill="rgb(0,0,0)" stroke="none" paint-order="stroke fill markers" d=" M 0.47600000000000003 -0.609 L 0.341 -0.419 Q 0.298 -0.359 0.279 -0.248 Q 0.268 -0.17400000000000002 0.268 -0.084 L 0.268 -0.033 Q 0.268 0.022 0.222 0.022 Q 0.176 0.022 0.176 -0.033 Q 0.176 -0.2 0.273 -0.368 L 0.299 -0.40900000000000003 L 0.41100000000000003 -0.5670000000000001 L 0.20400000000000001 -0.5670000000000001 Q 0.113 -0.5670000000000001 0.106 -0.561 Q 0.096 -0.552 0.081 -0.47000000000000003 L 0.056 -0.47000000000000003 L 0.089 -0.676 L 0.114 -0.676 Q 0.11800000000000001 -0.659 0.132 -0.653 L 0.133 -0.653 L 0.133 -0.653 Q 0.159 -0.644 0.242 -0.644 L 0.485 -0.644 Q 0.485 -0.621 0.47600000000000003 -0.609 Z"/></g></g><g transform="scale(25,25)"><g transform="translate(8.76,25.163999999999998)"><path fill="rgb(0,0,0)" stroke="none" paint-order="stroke fill markers" d=" M 0.29 -0.352 L 0.29 -0.352 Q 0.39 -0.332 0.434 -0.254 Q 0.457 -0.215 0.457 -0.171 Q 0.457 -0.08600000000000001 0.387 -0.028 Q 0.326 0.022 0.244 0.022 Q 0.145 0.022 0.085 -0.037 Q 0.042 -0.079 0.042 -0.135 Q 0.042 -0.182 0.084 -0.191 Q 0.091 -0.193 0.098 -0.193 Q 0.136 -0.193 0.149 -0.161 Q 0.153 -0.148 0.154 -0.137 Q 0.154 -0.097 0.11800000000000001 -0.085 Q 0.10400000000000001 -0.08 0.088 -0.082 Q 0.125 -0.02 0.216 -0.008 Q 0.229 -0.006 0.241 -0.006 Q 0.305 -0.006 0.335 -0.069 Q 0.354 -0.109 0.354 -0.171 Q 0.354 -0.304 0.274 -0.331 Q 0.256 -0.337 0.23500000000000001 -0.337 L 0.191 -0.337 Q 0.169 -0.337 0.167 -0.34800000000000003 Q 0.167 -0.358 0.182 -0.36 Q 0.197 -0.36 0.221 -0.363 Q 0.272 -0.365 0.301 -0.402 L 0.301 -0.403 L 0.302 -0.404 L 0.303 -0.405 L 0.304 -0.405 L 0.31 -0.41500000000000004 Q 0.338 -0.462 0.338 -0.529 Q 0.338 -0.622 0.266 -0.638 Q 0.254 -0.641 0.242 -0.641 Q 0.17200000000000001 -0.641 0.128 -0.601 Q 0.117 -0.591 0.109 -0.579 Q 0.171 -0.579 0.171 -0.529 Q 0.171 -0.493 0.14 -0.481 Q 0.131 -0.47800000000000004 0.12 -0.47800000000000004 Q 0.081 -0.47800000000000004 0.07100000000000001 -0.513 L 0.07100000000000001 -0.513 L 0.07100000000000001 -0.514 Q 0.069 -0.522 0.069 -0.53 Q 0.069 -0.597 0.135 -0.637 Q 0.183 -0.666 0.246 -0.666 Q 0.337 -0.666 0.393 -0.612 L 0.395 -0.61 Q 0.43 -0.5740000000000001 0.43 -0.528 Q 0.43 -0.445 0.359 -0.389 Q 0.328 -0.365 0.29 -0.352 Z"/></g></g><g transform="scale(25,25)"><g transform="translate(15.88,25.163999999999998)"><path fill="rgb(0,0,0)" stroke="none" paint-order="stroke fill markers" d=" M 0.367 -0.318 Q 0.327 -0.218 0.242 -0.218 Q 0.149 -0.218 0.09 -0.294 L 0.09 -0.295 Q 0.042 -0.357 0.042 -0.441 Q 0.042 -0.525 0.091 -0.586 L 0.106 -0.603 Q 0.166 -0.666 0.253 -0.666 Q 0.353 -0.666 0.40800000000000003 -0.5690000000000001 Q 0.457 -0.482 0.457 -0.329 Q 0.457 -0.158 0.365 -0.055 Q 0.296 0.022 0.20600000000000002 0.022 Q 0.108 0.022 0.077 -0.039 Q 0.067 -0.06 0.067 -0.08600000000000001 Q 0.067 -0.126 0.10400000000000001 -0.133 Q 0.109 -0.134 0.113 -0.134 Q 0.145 -0.134 0.156 -0.106 Q 0.159 -0.098 0.159 -0.088 Q 0.159 -0.048 0.11900000000000001 -0.043000000000000003 Q 0.113 -0.042 0.107 -0.042 Q 0.136 -0.006 0.20500000000000002 -0.006 Q 0.276 -0.006 0.321 -0.077 Q 0.367 -0.15 0.367 -0.28600000000000003 L 0.367 -0.318 M 0.243 -0.241 Q 0.321 -0.241 0.352 -0.333 Q 0.365 -0.374 0.365 -0.421 Q 0.365 -0.519 0.34900000000000003 -0.562 Q 0.323 -0.632 0.266 -0.64 Q 0.259 -0.641 0.253 -0.641 Q 0.187 -0.641 0.153 -0.578 Q 0.132 -0.541 0.132 -0.452 L 0.132 -0.44 Q 0.132 -0.341 0.15 -0.304 Q 0.181 -0.241 0.243 -0.241 Z"/></g></g><g transform="scale(25,25)"><g transform="translate(23,25.163999999999998)"><path fill="rgb(0,0,0)" stroke="none" paint-order="stroke fill markers" d=" M 0.132 -0.328 L 0.132 -0.328 Q 0.17300000000000001 -0.427 0.257 -0.427 Q 0.34900000000000003 -0.427 0.40800000000000003 -0.35100000000000003 Q 0.441 -0.31 0.452 -0.255 Q 0.457 -0.23 0.457 -0.20400000000000001 Q 0.457 -0.093 0.38 -0.026000000000000002 Q 0.324 0.022 0.251 0.022 Q 0.149 0.022 0.092 -0.075 Q 0.042 -0.162 0.042 -0.316 Q 0.042 -0.489 0.14 -0.591 Q 0.213 -0.666 0.305 -0.666 Q 0.392 -0.666 0.422 -0.605 Q 0.432 -0.584 0.432 -0.558 Q 0.432 -0.518 0.395 -0.511 Q 0.39 -0.51 0.386 -0.51 Q 0.354 -0.51 0.343 -0.538 Q 0.34 -0.546 0.34 -0.556 Q 0.34 -0.601 0.395 -0.601 Q 0.369 -0.641 0.307 -0.641 Q 0.23700000000000002 -0.641 0.189 -0.578 Q 0.132 -0.503 0.132 -0.352 L 0.132 -0.328 M 0.251 -0.006 L 0.251 -0.006 Q 0.318 -0.006 0.35000000000000003 -0.07100000000000001 Q 0.367 -0.107 0.367 -0.20500000000000002 Q 0.367 -0.305 0.34900000000000003 -0.342 Q 0.318 -0.404 0.256 -0.404 Q 0.177 -0.404 0.147 -0.31 Q 0.134 -0.271 0.134 -0.226 Q 0.134 -0.128 0.152 -0.081 Q 0.171 -0.035 0.211 -0.015 Q 0.23 -0.006 0.251 -0.006 Z"/></g></g><g transform="scale(25,25)"><g transform="translate(30.12,25.163999999999998)"><path fill="rgb(0,0,0)" stroke="none" paint-order="stroke fill markers" d=" M 0.028 -0.165 L 0.028 -0.196 L 0.335 -0.665 Q 0.343 -0.677 0.355 -0.677 Q 0.369 -0.677 0.371 -0.666 L 0.371 -0.651 L 0.371 -0.196 L 0.47100000000000003 -0.196 L 0.47100000000000003 -0.165 L 0.371 -0.165 L 0.371 -0.078 Q 0.371 -0.047 0.383 -0.04 Q 0.397 -0.031 0.447 -0.031 L 0.468 -0.031 L 0.468 0 Q 0.427 -0.003 0.332 -0.003 Q 0.23800000000000002 -0.003 0.197 0 L 0.197 -0.031 L 0.218 -0.031 Q 0.28 -0.031 0.29 -0.048 Q 0.294 -0.055 0.294 -0.078 L 0.294 -0.165 L 0.028 -0.165 M 0.3 -0.196 L 0.3 -0.5690000000000001 L 0.056 -0.196 L 0.3 -0.196 Z"/></g></g><g transform="scale(25,25)"><g transform="translate(37.24,25.163999999999998)"><path fill="rgb(0,0,0)" stroke="none" paint-order="stroke fill markers" d=" M 0.294 -0.64 L 0.294 -0.079 Q 0.294 -0.049 0.306 -0.041 Q 0.323 -0.031 0.387 -0.031 L 0.419 -0.031 L 0.419 0 Q 0.384 -0.003 0.257 -0.003 Q 0.13 -0.003 0.095 0 L 0.095 -0.031 L 0.127 -0.031 Q 0.20400000000000001 -0.031 0.215 -0.049 L 0.216 -0.05 Q 0.22 -0.058 0.22 -0.079 L 0.22 -0.597 Q 0.168 -0.5710000000000001 0.089 -0.5710000000000001 L 0.089 -0.602 Q 0.209 -0.602 0.271 -0.666 Q 0.29 -0.666 0.293 -0.659 L 0.293 -0.659 L 0.293 -0.658 Q 0.294 -0.655 0.294 -0.64 Z"/></g><g transform="translate(37.74,25.163999999999998)"><path fill="rgb(0,0,0)" stroke="none" paint-order="stroke fill markers" d=" M 0.294 -0.64 L 0.294 -0.079 Q 0.294 -0.049 0.306 -0.041 Q 0.323 -0.031 0.387 -0.031 L 0.419 -0.031 L 0.419 0 Q 0.384 -0.003 0.257 -0.003 Q 0.13 -0.003 0.095 0 L 0.095 -0.031 L 0.127 -0.031 Q 0.20400000000000001 -0.031 0.215 -0.049 L 0.216 -0.05 Q 0.22 -0.058 0.22 -0.079 L 0.22 -0.597 Q 0.168 -0.5710000000000001 0.089 -0.5710000000000001 L 0.089 -0.602 Q 0.209 -0.602 0.271 -0.666 Q 0.29 -0.666 0.293 -0.659 L 0.293 -0.659 L 0.293 -0.658 Q 0.294 -0.655 0.294 -0.64 Z"/></g></g><g transform="scale(25,25)"><g transform="translate(44.36,25.163999999999998)"><path fill="rgb(0,0,0)" stroke="none" paint-order="stroke fill markers" d=" M 0.367 -0.318 Q 0.327 -0.218 0.242 -0.218 Q 0.149 -0.218 0.09 -0.294 L 0.09 -0.295 Q 0.042 -0.357 0.042 -0.441 Q 0.042 -0.525 0.091 -0.586 L 0.106 -0.603 Q 0.166 -0.666 0.253 -0.666 Q 0.353 -0.666 0.40800000000000003 -0.5690000000000001 Q 0.457 -0.482 0.457 -0.329 Q 0.457 -0.158 0.365 -0.055 Q 0.296 0.022 0.20600000000000002 0.022 Q 0.108 0.022 0.077 -0.039 Q 0.067 -0.06 0.067 -0.08600000000000001 Q 0.067 -0.126 0.10400000000000001 -0.133 Q 0.109 -0.134 0.113 -0.134 Q 0.145 -0.134 0.156 -0.106 Q 0.159 -0.098 0.159 -0.088 Q 0.159 -0.048 0.11900000000000001 -0.043000000000000003 Q 0.113 -0.042 0.107 -0.042 Q 0.136 -0.006 0.20500000000000002 -0.006 Q 0.276 -0.006 0.321 -0.077 Q 0.367 -0.15 0.367 -0.28600000000000003 L 0.367 -0.318 M 0.243 -0.241 Q 0.321 -0.241 0.352 -0.333 Q 0.365 -0.374 0.365 -0.421 Q 0.365 -0.519 0.34900000000000003 -0.562 Q 0.323 -0.632 0.266 -0.64 Q 0.259 -0.641 0.253 -0.641 Q 0.187 -0.641 0.153 -0.578 Q 0.132 -0.541 0.132 -0.452 L 0.132 -0.44 Q 0.132 -0.341 0.15 -0.304 Q 0.181 -0.241 0.243 -0.241 Z"/></g></g><g transform="scale(25,25)"><g transform="translate(37.24,25.163999999999998)"><path fill="rgb(0,0,0)" stroke="none" paint-order="stroke fill markers" d=" M 0.294 -0.64 L 0.294 -0.079 Q 0.294 -0.049 0.306 -0.041 Q 0.323 -0.031 0.387 -0.031 L 0.419 -0.031 L 0.419 0 Q 0.384 -0.003 0.257 -0.003 Q 0.13 -0.003 0.095 0 L 0.095 -0.031 L 0.127 -0.031 Q 0.20400000000000001 -0.031 0.215 -0.049 L 0.216 -0.05 Q 0.22 -0.058 0.22 -0.079 L 0.22 -0.597 Q 0.168 -0.5710000000000001 0.089 -0.5710000000000001 L 0.089 -0.602 Q 0.209 -0.602 0.271 -0.666 Q 0.29 -0.666 0.293 -0.659 L 0.293 -0.659 L 0.293 -0.658 Q 0.294 -0.655 0.294 -0.64 Z"/></g><g transform="translate(37.74,25.163999999999998)"><path fill="rgb(0,0,0)" stroke="none" paint-order="stroke fill markers" d=" M 0.294 -0.64 L 0.294 -0.079 Q 0.294 -0.049 0.306 -0.041 Q 0.323 -0.031 0.387 -0.031 L 0.419 -0.031 L 0.419 0 Q 0.384 -0.003 0.257 -0.003 Q 0.13 -0.003 0.095 0 L 0.095 -0.031 L 0.127 -0.031 Q 0.20400000000000001 -0.031 0.215 -0.049 L 0.216 -0.05 Q 0.22 -0.058 0.22 -0.079 L 0.22 -0.597 Q 0.168 -0.5710000000000001 0.089 -0.5710000000000001 L 0.089 -0.602 Q 0.209 -0.602 0.271 -0.666 Q 0.29 -0.666 0.293 -0.659 L 0.293 -0.659 L 0.293 -0.658 Q 0.294 -0.655 0.294 -0.64 Z"/></g></g></g></g></svg>