<?xml version="1.0" encoding="UTF-8" standalone="no"?>
<!-- Created with Inkscape (http://www.inkscape.org/) -->

<svg
   width="166mm"
   height="27mm"
   viewBox="0 0 166 27"
   version="1.1"
   id="svg5"
   sodipodi:docname="169.svg"
   inkscape:version="1.2.2 (732a01da63, 2022-12-09)"
   xmlns:inkscape="http://www.inkscape.org/namespaces/inkscape"
   xmlns:sodipodi="http://sodipodi.sourceforge.net/DTD/sodipodi-0.dtd"
   xmlns="http://www.w3.org/2000/svg"
   xmlns:svg="http://www.w3.org/2000/svg">
  <sodipodi:namedview
     id="namedview7"
     pagecolor="#ffffff"
     bordercolor="#666666"
     borderopacity="1.0"
     inkscape:showpageshadow="2"
     inkscape:pageopacity="0.0"
     inkscape:pagecheckerboard="0"
     inkscape:deskcolor="#d1d1d1"
     inkscape:document-units="mm"
     showgrid="false"
     inkscape:zoom="2.9469416"
     inkscape:cx="511.54729"
     inkscape:cy="70.072648"
     inkscape:window-width="1920"
     inkscape:window-height="1002"
     inkscape:window-x="-8"
     inkscape:window-y="-8"
     inkscape:window-maximized="1"
     inkscape:current-layer="layer1" />
  <defs
     id="defs2">
    <inkscape:path-effect
       effect="bspline"
       id="path-effect2696"
       is_visible="true"
       lpeversion="1"
       weight="33.333333"
       steps="2"
       helper_size="0"
       apply_no_weight="true"
       apply_with_weight="true"
       only_selected="false" />
    <inkscape:path-effect
       effect="bspline"
       id="path-effect1861"
       is_visible="true"
       lpeversion="1"
       weight="33.333333"
       steps="2"
       helper_size="0"
       apply_no_weight="true"
       apply_with_weight="true"
       only_selected="false" />
    <inkscape:path-effect
       effect="bspline"
       id="path-effect4245"
       is_visible="true"
       lpeversion="1"
       weight="33.333333"
       steps="2"
       helper_size="0"
       apply_no_weight="true"
       apply_with_weight="true"
       only_selected="false" />
    <clipPath
       id="clipPath2070">
      <path
         clip-rule="nonzero"
         d="m 13,41 h 9 v 25.628906 h -9 z m 0,0"
         id="path9988" />
    </clipPath>
    <clipPath
       id="clipPath606">
      <path
         clip-rule="nonzero"
         d="m 13,38 h 9 v 25.042969 h -9 z m 0,0"
         id="path1252" />
    </clipPath>
    <clipPath
       id="clipPath2604">
      <path
         clip-rule="nonzero"
         d="M 1,0 H 8 V 17.214844 H 1 Z m 0,0"
         id="path3702" />
    </clipPath>
    <clipPath
       id="clipPath930">
      <path
         clip-rule="nonzero"
         d="m 278,0 h 7 v 17.214844 h -7 z m 0,0"
         id="path2146" />
    </clipPath>
    <inkscape:path-effect
       effect="bspline"
       id="path-effect4245-8"
       is_visible="true"
       lpeversion="1"
       weight="33.333333"
       steps="2"
       helper_size="0"
       apply_no_weight="true"
       apply_with_weight="true"
       only_selected="false" />
    <inkscape:path-effect
       effect="bspline"
       id="path-effect4245-0"
       is_visible="true"
       lpeversion="1"
       weight="33.333333"
       steps="2"
       helper_size="0"
       apply_no_weight="true"
       apply_with_weight="true"
       only_selected="false" />
    <inkscape:path-effect
       effect="bspline"
       id="path-effect4245-0-2"
       is_visible="true"
       lpeversion="1"
       weight="33.333333"
       steps="2"
       helper_size="0"
       apply_no_weight="true"
       apply_with_weight="true"
       only_selected="false" />
    <inkscape:path-effect
       effect="bspline"
       id="path-effect4245-7"
       is_visible="true"
       lpeversion="1"
       weight="33.333333"
       steps="2"
       helper_size="0"
       apply_no_weight="true"
       apply_with_weight="true"
       only_selected="false" />
    <inkscape:path-effect
       effect="bspline"
       id="path-effect4245-7-4"
       is_visible="true"
       lpeversion="1"
       weight="33.333333"
       steps="2"
       helper_size="0"
       apply_no_weight="true"
       apply_with_weight="true"
       only_selected="false" />
    <inkscape:path-effect
       effect="bspline"
       id="path-effect1861-0"
       is_visible="true"
       lpeversion="1"
       weight="33.333333"
       steps="2"
       helper_size="0"
       apply_no_weight="true"
       apply_with_weight="true"
       only_selected="false" />
  </defs>
  <g
     inkscape:label="图层 1"
     inkscape:groupmode="layer"
     id="layer1">
    <g
       inkscape:label=""
       transform="matrix(1.6466277,0,0,1.6466277,0.99999943,0.99368293)"
       id="g3716">
      <g
         clip-path="url(#clipPath2604)"
         id="g36"
         transform="matrix(0.352778,0,0,0.352778,-0.43546,0.00383637)">
        <g
           fill="#000000"
           fill-opacity="1"
           id="g34">
          <g
             id="use32"
             transform="translate(0,12.911)">
            <path
               d="m 4.875,-10.625 c 0,-0.6875 0.453125,-1.796875 2.328125,-1.90625 0.078125,-0.01563 0.15625,-0.09375 0.15625,-0.1875 0,-0.203125 -0.140625,-0.203125 -0.328125,-0.203125 -1.734375,0 -3.296875,0.890625 -3.3125,2.15625 v 3.9375 c 0,0.65625 0,1.21875 -0.6875,1.78125 -0.609375,0.5 -1.25,0.53125 -1.640625,0.546875 -0.078125,0.015625 -0.15625,0.09375 -0.15625,0.1875 0,0.1875 0.109375,0.1875 0.28125,0.203125 1.140625,0.0625 1.96875,0.6875 2.15625,1.53125 0.046875,0.1875 0.046875,0.21875 0.046875,0.84375 v 3.40625 c 0,0.71875 0,1.265625 0.828125,1.921875 0.671875,0.515625 1.8125,0.71875 2.484375,0.71875 0.1875,0 0.328125,0 0.328125,-0.203125 C 7.359375,3.9375 7.25,3.9375 7.078125,3.921875 5.984375,3.859375 5.140625,3.3125 4.921875,2.421875 4.875,2.265625 4.875,2.234375 4.875,1.625 V -2 C 4.875,-2.796875 4.734375,-3.078125 4.1875,-3.640625 3.828125,-4 3.328125,-4.171875 2.84375,-4.3125 4.25,-4.703125 4.875,-5.5 4.875,-6.484375 Z m 0,0"
               id="path172" />
          </g>
        </g>
      </g>
      <g
         fill="#0085c9"
         fill-opacity="1"
         id="g40"
         transform="matrix(0.352778,0,0,0.352778,-0.43546,0.00383637)">
        <g
           id="use38"
           transform="translate(8.6079998,12.911)">
          <path
             d="m 4.578125,-11 c 0,-0.359375 -0.015625,-0.375 -0.25,-0.375 -0.671875,0.796875 -1.6875,1.0625 -2.65625,1.09375 -0.046875,0 -0.140625,0 -0.15625,0.03125 C 1.5,-10.203125 1.5,-10.171875 1.5,-9.8125 c 0.53125,0 1.421875,-0.109375 2.109375,-0.515625 V -1.25 c 0,0.59375 -0.03125,0.796875 -1.515625,0.796875 H 1.578125 V 0 c 0.828125,-0.015625 1.6875,-0.03125 2.515625,-0.03125 0.828125,0 1.6875,0.015625 2.515625,0.03125 V -0.453125 H 6.09375 c -1.484375,0 -1.515625,-0.1875 -1.515625,-0.796875 z m 0,0"
             id="path176" />
        </g>
      </g>
      <g
         fill="#000000"
         fill-opacity="1"
         id="g44"
         transform="matrix(0.352778,0,0,0.352778,-0.43546,0.00383637)">
        <g
           id="use42"
           transform="translate(16.502981,12.911)">
          <path
             d="M 2.71875,-0.28125 C 2.75,-0.125 2.75,-0.0625 2.75,0.203125 c 0,1.03125 -0.34375,1.984375 -1.0625,2.84375 -0.09375,0.09375 -0.09375,0.125 -0.09375,0.15625 0,0.0625 0.078125,0.140625 0.140625,0.140625 0.109375,0 1.296875,-1.203125 1.296875,-3.125 0,-0.5625 -0.0625,-1.625 -0.875,-1.625 -0.375,0 -0.703125,0.25 -0.703125,0.703125 C 1.453125,-0.265625 1.78125,0 2.15625,0 2.359375,0 2.578125,-0.09375 2.71875,-0.28125 Z m 0,0"
             id="path180" />
        </g>
      </g>
      <g
         fill="#0085c9"
         fill-opacity="1"
         id="g48"
         transform="matrix(0.352778,0,0,0.352778,-0.43546,0.00383637)">
        <g
           id="use46"
           transform="translate(25.998997,12.911)">
          <path
             d="m 4.578125,-11 c 0,-0.359375 -0.015625,-0.375 -0.25,-0.375 -0.671875,0.796875 -1.6875,1.0625 -2.65625,1.09375 -0.046875,0 -0.140625,0 -0.15625,0.03125 C 1.5,-10.203125 1.5,-10.171875 1.5,-9.8125 c 0.53125,0 1.421875,-0.109375 2.109375,-0.515625 V -1.25 c 0,0.59375 -0.03125,0.796875 -1.515625,0.796875 H 1.578125 V 0 c 0.828125,-0.015625 1.6875,-0.03125 2.515625,-0.03125 0.828125,0 1.6875,0.015625 2.515625,0.03125 V -0.453125 H 6.09375 c -1.484375,0 -1.515625,-0.1875 -1.515625,-0.796875 z m 0,0"
             id="path184" />
        </g>
      </g>
      <g
         fill="#000000"
         fill-opacity="1"
         id="g52"
         transform="matrix(0.352778,0,0,0.352778,-0.43546,0.00383637)">
        <g
           id="use50"
           transform="translate(33.893978,12.911)">
          <path
             d="M 2.71875,-0.28125 C 2.75,-0.125 2.75,-0.0625 2.75,0.203125 c 0,1.03125 -0.34375,1.984375 -1.0625,2.84375 -0.09375,0.09375 -0.09375,0.125 -0.09375,0.15625 0,0.0625 0.078125,0.140625 0.140625,0.140625 0.109375,0 1.296875,-1.203125 1.296875,-3.125 0,-0.5625 -0.0625,-1.625 -0.875,-1.625 -0.375,0 -0.703125,0.25 -0.703125,0.703125 C 1.453125,-0.265625 1.78125,0 2.15625,0 2.359375,0 2.578125,-0.09375 2.71875,-0.28125 Z m 0,0"
             id="path188" />
        </g>
      </g>
      <g
         fill="#cc0548"
         fill-opacity="1"
         id="g56"
         transform="matrix(0.352778,0,0,0.352778,-0.43546,0.00383637)">
        <g
           id="use54"
           transform="translate(43.389996,12.911)">
          <path
             d="M 7.1875,-2.671875 H 6.875 c -0.171875,1.21875 -0.3125,1.4375 -0.390625,1.53125 C 6.40625,-1 5.171875,-1 4.921875,-1 H 1.625 c 0.609375,-0.671875 1.8125,-1.890625 3.28125,-3.3125 1.046875,-0.984375 2.28125,-2.15625 2.28125,-3.859375 0,-2.03125 -1.625,-3.203125 -3.4375,-3.203125 -1.890625,0 -3.046875,1.65625 -3.046875,3.21875 0,0.671875 0.5,0.75 0.703125,0.75 0.171875,0 0.6875,-0.09375 0.6875,-0.703125 0,-0.53125 -0.4375,-0.6875 -0.6875,-0.6875 -0.09375,0 -0.203125,0.015625 -0.265625,0.046875 0.328125,-1.453125 1.328125,-2.1875 2.375,-2.1875 1.5,0 2.46875,1.1875 2.46875,2.765625 0,1.484375 -0.875,2.78125 -1.859375,3.90625 l -3.421875,3.875 V 0 h 6.0625 z m 0,0"
             id="path192" />
        </g>
      </g>
      <g
         fill="#000000"
         fill-opacity="1"
         id="g60"
         transform="matrix(0.352778,0,0,0.352778,-0.43546,0.00383637)">
        <g
           id="use58"
           transform="translate(51.284977,12.911)">
          <path
             d="M 2.71875,-0.28125 C 2.75,-0.125 2.75,-0.0625 2.75,0.203125 c 0,1.03125 -0.34375,1.984375 -1.0625,2.84375 -0.09375,0.09375 -0.09375,0.125 -0.09375,0.15625 0,0.0625 0.078125,0.140625 0.140625,0.140625 0.109375,0 1.296875,-1.203125 1.296875,-3.125 0,-0.5625 -0.0625,-1.625 -0.875,-1.625 -0.375,0 -0.703125,0.25 -0.703125,0.703125 C 1.453125,-0.265625 1.78125,0 2.15625,0 2.359375,0 2.578125,-0.09375 2.71875,-0.28125 Z m 0,0"
             id="path196" />
        </g>
      </g>
      <g
         fill="#0085c9"
         fill-opacity="1"
         id="g64"
         transform="matrix(0.352778,0,0,0.352778,-0.43546,0.00383637)">
        <g
           id="use62"
           transform="translate(60.780991,12.911)">
          <path
             d="m 4.578125,-11 c 0,-0.359375 -0.015625,-0.375 -0.25,-0.375 -0.671875,0.796875 -1.6875,1.0625 -2.65625,1.09375 -0.046875,0 -0.140625,0 -0.15625,0.03125 C 1.5,-10.203125 1.5,-10.171875 1.5,-9.8125 c 0.53125,0 1.421875,-0.109375 2.109375,-0.515625 V -1.25 c 0,0.59375 -0.03125,0.796875 -1.515625,0.796875 H 1.578125 V 0 c 0.828125,-0.015625 1.6875,-0.03125 2.515625,-0.03125 0.828125,0 1.6875,0.015625 2.515625,0.03125 V -0.453125 H 6.09375 c -1.484375,0 -1.515625,-0.1875 -1.515625,-0.796875 z m 0,0"
             id="path200" />
        </g>
      </g>
      <g
         fill="#000000"
         fill-opacity="1"
         id="g68"
         transform="matrix(0.352778,0,0,0.352778,-0.43546,0.00383637)">
        <g
           id="use66"
           transform="translate(68.675972,12.911)">
          <path
             d="M 2.71875,-0.28125 C 2.75,-0.125 2.75,-0.0625 2.75,0.203125 c 0,1.03125 -0.34375,1.984375 -1.0625,2.84375 -0.09375,0.09375 -0.09375,0.125 -0.09375,0.15625 0,0.0625 0.078125,0.140625 0.140625,0.140625 0.109375,0 1.296875,-1.203125 1.296875,-3.125 0,-0.5625 -0.0625,-1.625 -0.875,-1.625 -0.375,0 -0.703125,0.25 -0.703125,0.703125 C 1.453125,-0.265625 1.78125,0 2.15625,0 2.359375,0 2.578125,-0.09375 2.71875,-0.28125 Z m 0,0"
             id="path204" />
        </g>
      </g>
      <g
         fill="#cc0548"
         fill-opacity="1"
         id="g72"
         transform="matrix(0.352778,0,0,0.352778,-0.43546,0.00383637)">
        <g
           id="use70"
           transform="translate(78.171989,12.911)">
          <path
             d="M 7.1875,-2.671875 H 6.875 c -0.171875,1.21875 -0.3125,1.4375 -0.390625,1.53125 C 6.40625,-1 5.171875,-1 4.921875,-1 H 1.625 c 0.609375,-0.671875 1.8125,-1.890625 3.28125,-3.3125 1.046875,-0.984375 2.28125,-2.15625 2.28125,-3.859375 0,-2.03125 -1.625,-3.203125 -3.4375,-3.203125 -1.890625,0 -3.046875,1.65625 -3.046875,3.21875 0,0.671875 0.5,0.75 0.703125,0.75 0.171875,0 0.6875,-0.09375 0.6875,-0.703125 0,-0.53125 -0.4375,-0.6875 -0.6875,-0.6875 -0.09375,0 -0.203125,0.015625 -0.265625,0.046875 0.328125,-1.453125 1.328125,-2.1875 2.375,-2.1875 1.5,0 2.46875,1.1875 2.46875,2.765625 0,1.484375 -0.875,2.78125 -1.859375,3.90625 l -3.421875,3.875 V 0 h 6.0625 z m 0,0"
             id="path208" />
        </g>
      </g>
      <g
         fill="#000000"
         fill-opacity="1"
         id="g76"
         transform="matrix(0.352778,0,0,0.352778,-0.43546,0.00383637)">
        <g
           id="use74"
           transform="translate(86.066971,12.911)">
          <path
             d="M 2.71875,-0.28125 C 2.75,-0.125 2.75,-0.0625 2.75,0.203125 c 0,1.03125 -0.34375,1.984375 -1.0625,2.84375 -0.09375,0.09375 -0.09375,0.125 -0.09375,0.15625 0,0.0625 0.078125,0.140625 0.140625,0.140625 0.109375,0 1.296875,-1.203125 1.296875,-3.125 0,-0.5625 -0.0625,-1.625 -0.875,-1.625 -0.375,0 -0.703125,0.25 -0.703125,0.703125 C 1.453125,-0.265625 1.78125,0 2.15625,0 2.359375,0 2.578125,-0.09375 2.71875,-0.28125 Z m 0,0"
             id="path212" />
        </g>
      </g>
      <g
         fill="#ffc049"
         fill-opacity="1"
         id="g80"
         transform="matrix(0.352778,0,0,0.352778,-0.43546,0.00383637)">
        <g
           id="use78"
           transform="translate(95.562988,12.911)">
          <path
             d="m 3.8125,-5.859375 c 1.53125,0 2.203125,1.328125 2.203125,2.859375 0,2.0625 -1.109375,2.859375 -2.109375,2.859375 C 3,-0.140625 1.515625,-0.578125 1.046875,-1.90625 1.140625,-1.875 1.21875,-1.875 1.3125,-1.875 c 0.40625,0 0.71875,-0.28125 0.71875,-0.71875 0,-0.5 -0.375,-0.734375 -0.71875,-0.734375 -0.296875,0 -0.75,0.140625 -0.75,0.78125 0,1.578125 1.5625,2.828125 3.375,2.828125 1.921875,0 3.375,-1.5 3.375,-3.265625 0,-1.671875 -1.375,-2.875 -3,-3.0625 1.296875,-0.265625 2.5625,-1.4375 2.5625,-3.015625 0,-1.34375 -1.359375,-2.3125 -2.921875,-2.3125 -1.5625,0 -2.9375,0.953125 -2.9375,2.328125 0,0.609375 0.453125,0.71875 0.671875,0.71875 0.359375,0 0.671875,-0.234375 0.671875,-0.671875 0,-0.453125 -0.3125,-0.671875 -0.671875,-0.671875 -0.0625,0 -0.15625,0 -0.21875,0.03125 0.5,-1.140625 1.859375,-1.34375 2.453125,-1.34375 0.609375,0 1.75,0.296875 1.75,1.9375 0,0.484375 -0.078125,1.34375 -0.65625,2.109375 C 4.5,-6.265625 3.90625,-6.234375 3.34375,-6.1875 c -0.09375,0 -0.484375,0.046875 -0.546875,0.046875 -0.125,0.015625 -0.203125,0.03125 -0.203125,0.15625 0,0.109375 0.03125,0.125 0.375,0.125 z m 0,0"
             id="path216" />
        </g>
      </g>
      <g
         fill="#000000"
         fill-opacity="1"
         id="g84"
         transform="matrix(0.352778,0,0,0.352778,-0.43546,0.00383637)">
        <g
           id="use82"
           transform="translate(103.45797,12.911)">
          <path
             d="M 2.71875,-0.28125 C 2.75,-0.125 2.75,-0.0625 2.75,0.203125 c 0,1.03125 -0.34375,1.984375 -1.0625,2.84375 -0.09375,0.09375 -0.09375,0.125 -0.09375,0.15625 0,0.0625 0.078125,0.140625 0.140625,0.140625 0.109375,0 1.296875,-1.203125 1.296875,-3.125 0,-0.5625 -0.0625,-1.625 -0.875,-1.625 -0.375,0 -0.703125,0.25 -0.703125,0.703125 C 1.453125,-0.265625 1.78125,0 2.15625,0 2.359375,0 2.578125,-0.09375 2.71875,-0.28125 Z m 0,0"
             id="path220" />
        </g>
      </g>
      <g
         fill="#ffc049"
         fill-opacity="1"
         id="g88"
         transform="matrix(0.352778,0,0,0.352778,-0.43546,0.00383637)">
        <g
           id="use86"
           transform="translate(112.95398,12.911)">
          <path
             d="m 3.8125,-5.859375 c 1.53125,0 2.203125,1.328125 2.203125,2.859375 0,2.0625 -1.109375,2.859375 -2.109375,2.859375 C 3,-0.140625 1.515625,-0.578125 1.046875,-1.90625 1.140625,-1.875 1.21875,-1.875 1.3125,-1.875 c 0.40625,0 0.71875,-0.28125 0.71875,-0.71875 0,-0.5 -0.375,-0.734375 -0.71875,-0.734375 -0.296875,0 -0.75,0.140625 -0.75,0.78125 0,1.578125 1.5625,2.828125 3.375,2.828125 1.921875,0 3.375,-1.5 3.375,-3.265625 0,-1.671875 -1.375,-2.875 -3,-3.0625 1.296875,-0.265625 2.5625,-1.4375 2.5625,-3.015625 0,-1.34375 -1.359375,-2.3125 -2.921875,-2.3125 -1.5625,0 -2.9375,0.953125 -2.9375,2.328125 0,0.609375 0.453125,0.71875 0.671875,0.71875 0.359375,0 0.671875,-0.234375 0.671875,-0.671875 0,-0.453125 -0.3125,-0.671875 -0.671875,-0.671875 -0.0625,0 -0.15625,0 -0.21875,0.03125 0.5,-1.140625 1.859375,-1.34375 2.453125,-1.34375 0.609375,0 1.75,0.296875 1.75,1.9375 0,0.484375 -0.078125,1.34375 -0.65625,2.109375 C 4.5,-6.265625 3.90625,-6.234375 3.34375,-6.1875 c -0.09375,0 -0.484375,0.046875 -0.546875,0.046875 -0.125,0.015625 -0.203125,0.03125 -0.203125,0.15625 0,0.109375 0.03125,0.125 0.375,0.125 z m 0,0"
             id="path224" />
        </g>
      </g>
      <g
         fill="#000000"
         fill-opacity="1"
         id="g92"
         transform="matrix(0.352778,0,0,0.352778,-0.43546,0.00383637)">
        <g
           id="use90"
           transform="translate(120.84897,12.911)">
          <path
             d="M 2.71875,-0.28125 C 2.75,-0.125 2.75,-0.0625 2.75,0.203125 c 0,1.03125 -0.34375,1.984375 -1.0625,2.84375 -0.09375,0.09375 -0.09375,0.125 -0.09375,0.15625 0,0.0625 0.078125,0.140625 0.140625,0.140625 0.109375,0 1.296875,-1.203125 1.296875,-3.125 0,-0.5625 -0.0625,-1.625 -0.875,-1.625 -0.375,0 -0.703125,0.25 -0.703125,0.703125 C 1.453125,-0.265625 1.78125,0 2.15625,0 2.359375,0 2.578125,-0.09375 2.71875,-0.28125 Z m 0,0"
             id="path228" />
        </g>
      </g>
      <g
         fill="#cc0548"
         fill-opacity="1"
         id="g96"
         transform="matrix(0.352778,0,0,0.352778,-0.43546,0.00383637)">
        <g
           id="use94"
           transform="translate(130.34499,12.911)">
          <path
             d="M 7.1875,-2.671875 H 6.875 c -0.171875,1.21875 -0.3125,1.4375 -0.390625,1.53125 C 6.40625,-1 5.171875,-1 4.921875,-1 H 1.625 c 0.609375,-0.671875 1.8125,-1.890625 3.28125,-3.3125 1.046875,-0.984375 2.28125,-2.15625 2.28125,-3.859375 0,-2.03125 -1.625,-3.203125 -3.4375,-3.203125 -1.890625,0 -3.046875,1.65625 -3.046875,3.21875 0,0.671875 0.5,0.75 0.703125,0.75 0.171875,0 0.6875,-0.09375 0.6875,-0.703125 0,-0.53125 -0.4375,-0.6875 -0.6875,-0.6875 -0.09375,0 -0.203125,0.015625 -0.265625,0.046875 0.328125,-1.453125 1.328125,-2.1875 2.375,-2.1875 1.5,0 2.46875,1.1875 2.46875,2.765625 0,1.484375 -0.875,2.78125 -1.859375,3.90625 l -3.421875,3.875 V 0 h 6.0625 z m 0,0"
             id="path232" />
        </g>
      </g>
      <g
         fill="#000000"
         fill-opacity="1"
         id="g100"
         transform="matrix(0.352778,0,0,0.352778,-0.43546,0.00383637)">
        <g
           id="use98"
           transform="translate(138.23996,12.911)">
          <path
             d="M 2.71875,-0.28125 C 2.75,-0.125 2.75,-0.0625 2.75,0.203125 c 0,1.03125 -0.34375,1.984375 -1.0625,2.84375 -0.09375,0.09375 -0.09375,0.125 -0.09375,0.15625 0,0.0625 0.078125,0.140625 0.140625,0.140625 0.109375,0 1.296875,-1.203125 1.296875,-3.125 0,-0.5625 -0.0625,-1.625 -0.875,-1.625 -0.375,0 -0.703125,0.25 -0.703125,0.703125 C 1.453125,-0.265625 1.78125,0 2.15625,0 2.359375,0 2.578125,-0.09375 2.71875,-0.28125 Z m 0,0"
             id="path236" />
        </g>
      </g>
      <g
         fill="#cc0548"
         fill-opacity="1"
         id="g104"
         transform="matrix(0.352778,0,0,0.352778,-0.43546,0.00383637)">
        <g
           id="use102"
           transform="translate(147.73598,12.911)">
          <path
             d="M 7.1875,-2.671875 H 6.875 c -0.171875,1.21875 -0.3125,1.4375 -0.390625,1.53125 C 6.40625,-1 5.171875,-1 4.921875,-1 H 1.625 c 0.609375,-0.671875 1.8125,-1.890625 3.28125,-3.3125 1.046875,-0.984375 2.28125,-2.15625 2.28125,-3.859375 0,-2.03125 -1.625,-3.203125 -3.4375,-3.203125 -1.890625,0 -3.046875,1.65625 -3.046875,3.21875 0,0.671875 0.5,0.75 0.703125,0.75 0.171875,0 0.6875,-0.09375 0.6875,-0.703125 0,-0.53125 -0.4375,-0.6875 -0.6875,-0.6875 -0.09375,0 -0.203125,0.015625 -0.265625,0.046875 0.328125,-1.453125 1.328125,-2.1875 2.375,-2.1875 1.5,0 2.46875,1.1875 2.46875,2.765625 0,1.484375 -0.875,2.78125 -1.859375,3.90625 l -3.421875,3.875 V 0 h 6.0625 z m 0,0"
             id="path240" />
        </g>
      </g>
      <g
         fill="#000000"
         fill-opacity="1"
         id="g108"
         transform="matrix(0.352778,0,0,0.352778,-0.43546,0.00383637)">
        <g
           id="use106"
           transform="translate(155.63097,12.911)">
          <path
             d="M 2.71875,-0.28125 C 2.75,-0.125 2.75,-0.0625 2.75,0.203125 c 0,1.03125 -0.34375,1.984375 -1.0625,2.84375 -0.09375,0.09375 -0.09375,0.125 -0.09375,0.15625 0,0.0625 0.078125,0.140625 0.140625,0.140625 0.109375,0 1.296875,-1.203125 1.296875,-3.125 0,-0.5625 -0.0625,-1.625 -0.875,-1.625 -0.375,0 -0.703125,0.25 -0.703125,0.703125 C 1.453125,-0.265625 1.78125,0 2.15625,0 2.359375,0 2.578125,-0.09375 2.71875,-0.28125 Z m 0,0"
             id="path244" />
        </g>
      </g>
      <g
         fill="#cc0548"
         fill-opacity="1"
         id="g112"
         transform="matrix(0.352778,0,0,0.352778,-0.43546,0.00383637)">
        <g
           id="use110"
           transform="translate(165.12697,12.911)">
          <path
             d="M 7.1875,-2.671875 H 6.875 c -0.171875,1.21875 -0.3125,1.4375 -0.390625,1.53125 C 6.40625,-1 5.171875,-1 4.921875,-1 H 1.625 c 0.609375,-0.671875 1.8125,-1.890625 3.28125,-3.3125 1.046875,-0.984375 2.28125,-2.15625 2.28125,-3.859375 0,-2.03125 -1.625,-3.203125 -3.4375,-3.203125 -1.890625,0 -3.046875,1.65625 -3.046875,3.21875 0,0.671875 0.5,0.75 0.703125,0.75 0.171875,0 0.6875,-0.09375 0.6875,-0.703125 0,-0.53125 -0.4375,-0.6875 -0.6875,-0.6875 -0.09375,0 -0.203125,0.015625 -0.265625,0.046875 0.328125,-1.453125 1.328125,-2.1875 2.375,-2.1875 1.5,0 2.46875,1.1875 2.46875,2.765625 0,1.484375 -0.875,2.78125 -1.859375,3.90625 l -3.421875,3.875 V 0 h 6.0625 z m 0,0"
             id="path248" />
        </g>
      </g>
      <g
         fill="#000000"
         fill-opacity="1"
         id="g116"
         transform="matrix(0.352778,0,0,0.352778,-0.43546,0.00383637)">
        <g
           id="use114"
           transform="translate(173.02196,12.911)">
          <path
             d="M 2.71875,-0.28125 C 2.75,-0.125 2.75,-0.0625 2.75,0.203125 c 0,1.03125 -0.34375,1.984375 -1.0625,2.84375 -0.09375,0.09375 -0.09375,0.125 -0.09375,0.15625 0,0.0625 0.078125,0.140625 0.140625,0.140625 0.109375,0 1.296875,-1.203125 1.296875,-3.125 0,-0.5625 -0.0625,-1.625 -0.875,-1.625 -0.375,0 -0.703125,0.25 -0.703125,0.703125 C 1.453125,-0.265625 1.78125,0 2.15625,0 2.359375,0 2.578125,-0.09375 2.71875,-0.28125 Z m 0,0"
             id="path252" />
        </g>
      </g>
      <g
         fill="#0085c9"
         fill-opacity="1"
         id="g120"
         transform="matrix(0.352778,0,0,0.352778,-0.43546,0.00383637)">
        <g
           id="use118"
           transform="translate(182.50075,12.911)">
          <path
             d="m 4.578125,-11 c 0,-0.359375 -0.015625,-0.375 -0.25,-0.375 -0.671875,0.796875 -1.6875,1.0625 -2.65625,1.09375 -0.046875,0 -0.140625,0 -0.15625,0.03125 C 1.5,-10.203125 1.5,-10.171875 1.5,-9.8125 c 0.53125,0 1.421875,-0.109375 2.109375,-0.515625 V -1.25 c 0,0.59375 -0.03125,0.796875 -1.515625,0.796875 H 1.578125 V 0 c 0.828125,-0.015625 1.6875,-0.03125 2.515625,-0.03125 0.828125,0 1.6875,0.015625 2.515625,0.03125 V -0.453125 H 6.09375 c -1.484375,0 -1.515625,-0.1875 -1.515625,-0.796875 z m 0,0"
             id="path256" />
        </g>
      </g>
      <g
         fill="#000000"
         fill-opacity="1"
         id="g124"
         transform="matrix(0.352778,0,0,0.352778,-0.43546,0.00383637)">
        <g
           id="use122"
           transform="translate(190.39574,12.911)">
          <path
             d="M 2.71875,-0.28125 C 2.75,-0.125 2.75,-0.0625 2.75,0.203125 c 0,1.03125 -0.34375,1.984375 -1.0625,2.84375 -0.09375,0.09375 -0.09375,0.125 -0.09375,0.15625 0,0.0625 0.078125,0.140625 0.140625,0.140625 0.109375,0 1.296875,-1.203125 1.296875,-3.125 0,-0.5625 -0.0625,-1.625 -0.875,-1.625 -0.375,0 -0.703125,0.25 -0.703125,0.703125 C 1.453125,-0.265625 1.78125,0 2.15625,0 2.359375,0 2.578125,-0.09375 2.71875,-0.28125 Z m 0,0"
             id="path260" />
        </g>
      </g>
      <g
         fill="#cc0548"
         fill-opacity="1"
         id="g128"
         transform="matrix(0.352778,0,0,0.352778,-0.43546,0.00383637)">
        <g
           id="use126"
           transform="translate(199.89175,12.911)">
          <path
             d="M 7.1875,-2.671875 H 6.875 c -0.171875,1.21875 -0.3125,1.4375 -0.390625,1.53125 C 6.40625,-1 5.171875,-1 4.921875,-1 H 1.625 c 0.609375,-0.671875 1.8125,-1.890625 3.28125,-3.3125 1.046875,-0.984375 2.28125,-2.15625 2.28125,-3.859375 0,-2.03125 -1.625,-3.203125 -3.4375,-3.203125 -1.890625,0 -3.046875,1.65625 -3.046875,3.21875 0,0.671875 0.5,0.75 0.703125,0.75 0.171875,0 0.6875,-0.09375 0.6875,-0.703125 0,-0.53125 -0.4375,-0.6875 -0.6875,-0.6875 -0.09375,0 -0.203125,0.015625 -0.265625,0.046875 0.328125,-1.453125 1.328125,-2.1875 2.375,-2.1875 1.5,0 2.46875,1.1875 2.46875,2.765625 0,1.484375 -0.875,2.78125 -1.859375,3.90625 l -3.421875,3.875 V 0 h 6.0625 z m 0,0"
             id="path264" />
        </g>
      </g>
      <g
         fill="#000000"
         fill-opacity="1"
         id="g132"
         transform="matrix(0.352778,0,0,0.352778,-0.43546,0.00383637)">
        <g
           id="use130"
           transform="translate(207.78673,12.911)">
          <path
             d="M 2.71875,-0.28125 C 2.75,-0.125 2.75,-0.0625 2.75,0.203125 c 0,1.03125 -0.34375,1.984375 -1.0625,2.84375 -0.09375,0.09375 -0.09375,0.125 -0.09375,0.15625 0,0.0625 0.078125,0.140625 0.140625,0.140625 0.109375,0 1.296875,-1.203125 1.296875,-3.125 0,-0.5625 -0.0625,-1.625 -0.875,-1.625 -0.375,0 -0.703125,0.25 -0.703125,0.703125 C 1.453125,-0.265625 1.78125,0 2.15625,0 2.359375,0 2.578125,-0.09375 2.71875,-0.28125 Z m 0,0"
             id="path268" />
        </g>
      </g>
      <g
         fill="#cc0548"
         fill-opacity="1"
         id="g136"
         transform="matrix(0.352778,0,0,0.352778,-0.43546,0.00383637)">
        <g
           id="use134"
           transform="translate(217.28275,12.911)">
          <path
             d="M 7.1875,-2.671875 H 6.875 c -0.171875,1.21875 -0.3125,1.4375 -0.390625,1.53125 C 6.40625,-1 5.171875,-1 4.921875,-1 H 1.625 c 0.609375,-0.671875 1.8125,-1.890625 3.28125,-3.3125 1.046875,-0.984375 2.28125,-2.15625 2.28125,-3.859375 0,-2.03125 -1.625,-3.203125 -3.4375,-3.203125 -1.890625,0 -3.046875,1.65625 -3.046875,3.21875 0,0.671875 0.5,0.75 0.703125,0.75 0.171875,0 0.6875,-0.09375 0.6875,-0.703125 0,-0.53125 -0.4375,-0.6875 -0.6875,-0.6875 -0.09375,0 -0.203125,0.015625 -0.265625,0.046875 0.328125,-1.453125 1.328125,-2.1875 2.375,-2.1875 1.5,0 2.46875,1.1875 2.46875,2.765625 0,1.484375 -0.875,2.78125 -1.859375,3.90625 l -3.421875,3.875 V 0 h 6.0625 z m 0,0"
             id="path272" />
        </g>
      </g>
      <g
         fill="#000000"
         fill-opacity="1"
         id="g140"
         transform="matrix(0.352778,0,0,0.352778,-0.43546,0.00383637)">
        <g
           id="use138"
           transform="translate(225.17773,12.911)">
          <path
             d="M 2.71875,-0.28125 C 2.75,-0.125 2.75,-0.0625 2.75,0.203125 c 0,1.03125 -0.34375,1.984375 -1.0625,2.84375 -0.09375,0.09375 -0.09375,0.125 -0.09375,0.15625 0,0.0625 0.078125,0.140625 0.140625,0.140625 0.109375,0 1.296875,-1.203125 1.296875,-3.125 0,-0.5625 -0.0625,-1.625 -0.875,-1.625 -0.375,0 -0.703125,0.25 -0.703125,0.703125 C 1.453125,-0.265625 1.78125,0 2.15625,0 2.359375,0 2.578125,-0.09375 2.71875,-0.28125 Z m 0,0"
             id="path276" />
        </g>
      </g>
      <g
         fill="#ffc049"
         fill-opacity="1"
         id="g144"
         transform="matrix(0.352778,0,0,0.352778,-0.43546,0.00383637)">
        <g
           id="use142"
           transform="translate(234.67375,12.911)">
          <path
             d="m 3.8125,-5.859375 c 1.53125,0 2.203125,1.328125 2.203125,2.859375 0,2.0625 -1.109375,2.859375 -2.109375,2.859375 C 3,-0.140625 1.515625,-0.578125 1.046875,-1.90625 1.140625,-1.875 1.21875,-1.875 1.3125,-1.875 c 0.40625,0 0.71875,-0.28125 0.71875,-0.71875 0,-0.5 -0.375,-0.734375 -0.71875,-0.734375 -0.296875,0 -0.75,0.140625 -0.75,0.78125 0,1.578125 1.5625,2.828125 3.375,2.828125 1.921875,0 3.375,-1.5 3.375,-3.265625 0,-1.671875 -1.375,-2.875 -3,-3.0625 1.296875,-0.265625 2.5625,-1.4375 2.5625,-3.015625 0,-1.34375 -1.359375,-2.3125 -2.921875,-2.3125 -1.5625,0 -2.9375,0.953125 -2.9375,2.328125 0,0.609375 0.453125,0.71875 0.671875,0.71875 0.359375,0 0.671875,-0.234375 0.671875,-0.671875 0,-0.453125 -0.3125,-0.671875 -0.671875,-0.671875 -0.0625,0 -0.15625,0 -0.21875,0.03125 0.5,-1.140625 1.859375,-1.34375 2.453125,-1.34375 0.609375,0 1.75,0.296875 1.75,1.9375 0,0.484375 -0.078125,1.34375 -0.65625,2.109375 C 4.5,-6.265625 3.90625,-6.234375 3.34375,-6.1875 c -0.09375,0 -0.484375,0.046875 -0.546875,0.046875 -0.125,0.015625 -0.203125,0.03125 -0.203125,0.15625 0,0.109375 0.03125,0.125 0.375,0.125 z m 0,0"
             id="path280" />
        </g>
      </g>
      <g
         fill="#000000"
         fill-opacity="1"
         id="g148"
         transform="matrix(0.352778,0,0,0.352778,-0.43546,0.00383637)">
        <g
           id="use146"
           transform="translate(242.56873,12.911)">
          <path
             d="M 2.71875,-0.28125 C 2.75,-0.125 2.75,-0.0625 2.75,0.203125 c 0,1.03125 -0.34375,1.984375 -1.0625,2.84375 -0.09375,0.09375 -0.09375,0.125 -0.09375,0.15625 0,0.0625 0.078125,0.140625 0.140625,0.140625 0.109375,0 1.296875,-1.203125 1.296875,-3.125 0,-0.5625 -0.0625,-1.625 -0.875,-1.625 -0.375,0 -0.703125,0.25 -0.703125,0.703125 C 1.453125,-0.265625 1.78125,0 2.15625,0 2.359375,0 2.578125,-0.09375 2.71875,-0.28125 Z m 0,0"
             id="path284" />
        </g>
      </g>
      <g
         fill="#cc0548"
         fill-opacity="1"
         id="g152"
         transform="matrix(0.352778,0,0,0.352778,-0.43546,0.00383637)">
        <g
           id="use150"
           transform="translate(252.06474,12.911)">
          <path
             d="M 7.1875,-2.671875 H 6.875 c -0.171875,1.21875 -0.3125,1.4375 -0.390625,1.53125 C 6.40625,-1 5.171875,-1 4.921875,-1 H 1.625 c 0.609375,-0.671875 1.8125,-1.890625 3.28125,-3.3125 1.046875,-0.984375 2.28125,-2.15625 2.28125,-3.859375 0,-2.03125 -1.625,-3.203125 -3.4375,-3.203125 -1.890625,0 -3.046875,1.65625 -3.046875,3.21875 0,0.671875 0.5,0.75 0.703125,0.75 0.171875,0 0.6875,-0.09375 0.6875,-0.703125 0,-0.53125 -0.4375,-0.6875 -0.6875,-0.6875 -0.09375,0 -0.203125,0.015625 -0.265625,0.046875 0.328125,-1.453125 1.328125,-2.1875 2.375,-2.1875 1.5,0 2.46875,1.1875 2.46875,2.765625 0,1.484375 -0.875,2.78125 -1.859375,3.90625 l -3.421875,3.875 V 0 h 6.0625 z m 0,0"
             id="path288" />
        </g>
      </g>
      <g
         fill="#000000"
         fill-opacity="1"
         id="g156"
         transform="matrix(0.352778,0,0,0.352778,-0.43546,0.00383637)">
        <g
           id="use154"
           transform="translate(259.95972,12.911)">
          <path
             d="M 2.71875,-0.28125 C 2.75,-0.125 2.75,-0.0625 2.75,0.203125 c 0,1.03125 -0.34375,1.984375 -1.0625,2.84375 -0.09375,0.09375 -0.09375,0.125 -0.09375,0.15625 0,0.0625 0.078125,0.140625 0.140625,0.140625 0.109375,0 1.296875,-1.203125 1.296875,-3.125 0,-0.5625 -0.0625,-1.625 -0.875,-1.625 -0.375,0 -0.703125,0.25 -0.703125,0.703125 C 1.453125,-0.265625 1.78125,0 2.15625,0 2.359375,0 2.578125,-0.09375 2.71875,-0.28125 Z m 0,0"
             id="path292" />
        </g>
      </g>
      <g
         fill="#cc0548"
         fill-opacity="1"
         id="g160"
         transform="matrix(0.352778,0,0,0.352778,-0.43546,0.00383637)">
        <g
           id="use158"
           transform="translate(269.45575,12.911)">
          <path
             d="M 7.1875,-2.671875 H 6.875 c -0.171875,1.21875 -0.3125,1.4375 -0.390625,1.53125 C 6.40625,-1 5.171875,-1 4.921875,-1 H 1.625 c 0.609375,-0.671875 1.8125,-1.890625 3.28125,-3.3125 1.046875,-0.984375 2.28125,-2.15625 2.28125,-3.859375 0,-2.03125 -1.625,-3.203125 -3.4375,-3.203125 -1.890625,0 -3.046875,1.65625 -3.046875,3.21875 0,0.671875 0.5,0.75 0.703125,0.75 0.171875,0 0.6875,-0.09375 0.6875,-0.703125 0,-0.53125 -0.4375,-0.6875 -0.6875,-0.6875 -0.09375,0 -0.203125,0.015625 -0.265625,0.046875 0.328125,-1.453125 1.328125,-2.1875 2.375,-2.1875 1.5,0 2.46875,1.1875 2.46875,2.765625 0,1.484375 -0.875,2.78125 -1.859375,3.90625 l -3.421875,3.875 V 0 h 6.0625 z m 0,0"
             id="path296" />
        </g>
      </g>
      <g
         clip-path="url(#clipPath930)"
         id="g166"
         transform="matrix(0.352778,0,0,0.352778,-0.43546,0.00383637)">
        <g
           fill="#000000"
           fill-opacity="1"
           id="g164">
          <g
             id="use162"
             transform="translate(277.35501,12.911)">
            <path
               d="m 3.71875,2.015625 c 0,0.6875 -0.453125,1.796875 -2.328125,1.90625 -0.078125,0.015625 -0.15625,0.09375 -0.15625,0.1875 0,0.203125 0.1875,0.203125 0.34375,0.203125 C 3.25,4.3125 4.859375,3.46875 4.875,2.15625 v -3.9375 c 0,-0.65625 0,-1.21875 0.6875,-1.78125 0.609375,-0.5 1.25,-0.53125 1.640625,-0.546875 C 7.28125,-4.125 7.359375,-4.203125 7.359375,-4.3125 7.359375,-4.484375 7.25,-4.484375 7.078125,-4.5 5.9375,-4.5625 5.109375,-5.1875 4.921875,-6.03125 4.875,-6.21875 4.875,-6.25 4.875,-6.875 v -3.40625 c 0,-0.71875 0,-1.265625 -0.828125,-1.921875 -0.6875,-0.53125 -1.875,-0.71875 -2.46875,-0.71875 -0.15625,0 -0.34375,0 -0.34375,0.203125 0,0.171875 0.109375,0.171875 0.28125,0.1875 1.078125,0.0625 1.921875,0.609375 2.15625,1.5 0.046875,0.15625 0.046875,0.1875 0.046875,0.796875 v 3.625 c 0,0.796875 0.140625,1.078125 0.6875,1.640625 C 4.765625,-4.609375 5.265625,-4.4375 5.75,-4.3125 4.34375,-3.90625 3.71875,-3.109375 3.71875,-2.125 Z m 0,0"
               id="path300" />
          </g>
        </g>
      </g>
    </g>
    <path
       style="fill:none;stroke:#000000;stroke-width:0.264583px;stroke-linecap:butt;stroke-linejoin:miter;stroke-opacity:1"
       d="m 7.8643094,12.760923 c 1.6669102,2.000292 3.3335366,4.000244 5.7502646,5.000122 2.416729,0.999878 5.583265,0.999878 7.999837,-0.07101 2.416573,-1.070883 4.083204,-3.212595 5.749898,-5.354386"
       id="path4243"
       inkscape:path-effect="#path-effect4245"
       inkscape:original-d="m 7.8643094,12.760923 c 1.666937,2.00027 3.3335646,4.00022 4.9999996,6 3.166994,2.6e-4 6.33353,2.6e-4 9.5,0 1.666967,-2.14154 3.3336,-4.28325 5,-6.42527"
       sodipodi:nodetypes="cccc" />
    <path
       style="fill:none;stroke:#000000;stroke-width:0.264583px;stroke-linecap:butt;stroke-linejoin:miter;stroke-opacity:1"
       d="m 88.765939,12.760923 c 1.666907,2.000289 3.333534,4.000241 5.750262,5.000121 2.416728,0.999879 5.583269,0.999879 7.999839,-0.071 2.41657,-1.070882 4.08321,-3.212597 5.7499,-5.354388"
       id="path4243-4"
       inkscape:path-effect="#path-effect4245-7"
       inkscape:original-d="m 88.765939,12.760923 c 1.66693,2.00027 3.33356,4.00022 5,6 3.16699,2.6e-4 6.333531,2.6e-4 9.500001,0 1.66696,-2.14154 3.3336,-4.28325 5,-6.42527"
       sodipodi:nodetypes="cccc" />
    <path
       style="fill:none;stroke:#000000;stroke-width:0.264583px;stroke-linecap:butt;stroke-linejoin:miter;stroke-opacity:1"
       d="m 98.367609,12.337053 c 4.000001,5 8.000161,10.000197 12.750261,12.500098 4.75011,2.499902 10.24989,2.499902 14.99984,-1.32e-4 4.74995,-2.500034 8.74988,-7.499939 12.7499,-12.499966"
       id="path4243-4-0"
       inkscape:path-effect="#path-effect4245-7-4"
       inkscape:original-d="m 98.367609,12.337053 c 0,0 8.000191,10.00017 12.000001,15 5.50037,2.6e-4 11.00015,2.6e-4 16.5,0 4.00034,-4.99984 8.00027,-9.99974 12,-15"
       sodipodi:nodetypes="cccc" />
    <path
       style="fill:none;stroke:#000000;stroke-width:0.264583px;stroke-linecap:butt;stroke-linejoin:miter;stroke-opacity:1"
       d="m 38.065938,12.760923 c 1.666911,2.000293 3.333536,4.000244 5.750265,5.000122 2.416729,0.999878 5.583265,0.999878 7.999837,-0.07101 2.416573,-1.070883 4.083204,-3.212595 5.749898,-5.354386"
       id="path4243-2"
       inkscape:path-effect="#path-effect4245-0"
       inkscape:original-d="m 38.065938,12.760923 c 1.666938,2.00027 3.333565,4.00022 5,6 3.166994,2.6e-4 6.33353,2.6e-4 9.5,0 1.666967,-2.14154 3.3336,-4.28325 5,-6.42527"
       sodipodi:nodetypes="cccc" />
    <path
       style="fill:none;stroke:#000000;stroke-width:0.264583px;stroke-linecap:butt;stroke-linejoin:miter;stroke-opacity:1"
       d="m 68.364309,12.333803 c 0.900236,1.110984 1.800217,2.221654 2.983588,2.776867 1.183372,0.555213 2.649973,0.555213 3.833193,0.01363 1.18322,-0.541579 2.083198,-1.624709 2.983219,-2.707891"
       id="path4243-2-6"
       inkscape:path-effect="#path-effect4245-0-2"
       inkscape:original-d="m 68.364309,12.333803 c 0.900266,1.11096 1.800247,2.22163 2.7,3.33208 1.46696,2.6e-4 2.933561,2.6e-4 4.4,0 0.900287,-1.08292 1.800266,-2.16605 2.7,-3.24947"
       sodipodi:nodetypes="cccc" />
    <path
       style="fill:none;stroke:#000000;stroke-width:0.264583px;stroke-linecap:butt;stroke-linejoin:miter;stroke-opacity:1"
       d="m 18.164309,12.749103 c 2.666896,3.643444 5.333498,7.286485 8.95026,9.107938 3.616761,1.821452 8.183233,1.821452 11.799832,-0.07101 3.6166,-1.892461 6.283205,-5.677261 8.949908,-9.462199"
       id="path4243-6"
       inkscape:path-effect="#path-effect4245-8"
       inkscape:original-d="m 18.164309,12.749103 c 2.666942,3.64341 5.333546,7.28645 8,10.92939 4.567021,2.6e-4 9.133493,2.6e-4 13.7,0 2.666993,-3.78471 5.333599,-7.56951 8,-11.35466"
       sodipodi:nodetypes="cccc" />
    <path
       style="fill:none;stroke:#000080;stroke-width:1;stroke-linecap:butt;stroke-linejoin:miter;stroke-opacity:1;stroke-dasharray:none"
       d="m 116.08285,12.680015 c 0.75412,0.822625 1.50802,1.644998 2.26182,1.344441 0.75381,-0.300556 1.50768,-1.723769 2.26166,-1.634115 0.75397,0.08965 1.50786,1.691928 2.26171,1.691809 0.75386,-1.18e-4 1.50774,-1.602387 2.26172,-1.602269 0.75397,1.17e-4 1.50785,1.602388 2.26171,1.662948 0.75386,0.06056 1.50773,-1.420332 2.26176,-1.72065 0.75403,-0.300317 1.50791,0.579736 2.26161,1.45958"
       id="path1859"
       inkscape:path-effect="#path-effect1861"
       inkscape:original-d="m 116.08285,12.680015 c 0.75421,0.822545 1.5081,1.644921 2.26172,2.467165 0.7542,-1.423127 1.50809,-2.846331 2.2617,-4.269782 0.75421,1.602513 1.5081,3.204784 2.26172,4.806978 0.75423,-1.602194 1.5081,-3.204466 2.26171,-4.806978 0.75422,1.602512 1.50811,3.204777 2.26171,4.806978 0.75423,-1.480828 1.50811,-2.961717 2.26171,-4.442866 0.75424,0.880263 1.50811,1.760326 2.26172,2.640249"
       sodipodi:nodetypes="cccccccc" />
    <path
       style="fill:none;stroke:#000080;stroke-width:1;stroke-linecap:butt;stroke-linejoin:miter;stroke-opacity:1;stroke-dasharray:none"
       d="m 146.08038,12.680015 c 0.75412,0.822625 1.50802,1.644998 2.26182,1.344441 0.75381,-0.300556 1.50768,-1.723769 2.26166,-1.634115 0.75397,0.08965 1.50786,1.691928 2.26171,1.691809 0.75386,-1.18e-4 1.50774,-1.602387 2.26172,-1.602269 0.75397,1.17e-4 1.50785,1.602388 2.26171,1.662948 0.75386,0.06056 1.50773,-1.420332 2.26176,-1.72065 0.75403,-0.300317 1.50791,0.579736 2.26161,1.45958"
       id="path1859-9"
       inkscape:path-effect="#path-effect1861-0"
       inkscape:original-d="m 146.08038,12.680015 c 0.75421,0.822545 1.5081,1.644921 2.26172,2.467165 0.7542,-1.423127 1.50809,-2.846331 2.2617,-4.269782 0.75421,1.602513 1.5081,3.204784 2.26172,4.806978 0.75423,-1.602194 1.5081,-3.204466 2.26171,-4.806978 0.75422,1.602512 1.50811,3.204777 2.26171,4.806978 0.75423,-1.480828 1.50811,-2.961717 2.26171,-4.442866 0.75424,0.880263 1.50811,1.760326 2.26172,2.640249"
       sodipodi:nodetypes="cccccccc" />
  </g>
</svg>
